<?xml version="1.0" encoding="iso-8859-1"?>
<!-- Uploaded to: SVG Repo, www.svgrepo.com, Generator: SVG Repo Mixer Tools -->
<svg height="800px" width="800px" version="1.1" id="Layer_1" xmlns="http://www.w3.org/2000/svg" xmlns:xlink="http://www.w3.org/1999/xlink" 
	 viewBox="0 0 511.999 511.999" xml:space="preserve">
<g>
	<g>
		<path style="fill:#CDCDCD;" d="M503.466,507.733c-0.939,0-1.911-0.162-2.85-0.495l-409.6-145.067
			c-4.437-1.57-6.767-6.443-5.188-10.889c1.57-4.437,6.434-6.775,10.889-5.188l409.6,145.067c4.437,1.57,6.767,6.443,5.188,10.889
			C510.267,505.548,506.982,507.733,503.466,507.733"/>
		<path style="fill:#CDCDCD;" d="M8.533,507.733c-3.516,0-6.801-2.185-8.038-5.683c-1.579-4.446,0.751-9.318,5.188-10.889
			l409.6-145.067c4.454-1.587,9.318,0.751,10.889,5.188c1.579,4.446-0.751,9.318-5.188,10.889l-409.6,145.067
			C10.444,507.571,9.471,507.733,8.533,507.733"/>
	</g>
	<path style="fill:#FFCE5D;" d="M426.666,174.933c0,94.259-76.407,170.667-170.667,170.667S85.333,269.192,85.333,174.933
		S161.74,4.266,255.999,4.266S426.666,80.673,426.666,174.933"/>
	<path style="fill:#439FDE;" d="M110.933,337.066c0,28.279-22.921,51.2-51.2,51.2s-51.2-22.921-51.2-51.2s22.921-51.2,51.2-51.2
		S110.933,308.787,110.933,337.066"/>
	<path style="fill:#2485BB;" d="M42.666,354.133c-4.719,0-8.533-3.814-8.533-8.533c0-18.825,15.309-34.133,34.133-34.133
		c4.719,0,8.533,3.814,8.533,8.533c0,4.719-3.814,8.533-8.533,8.533c-9.412,0-17.067,7.654-17.067,17.067
		C51.199,350.318,47.385,354.133,42.666,354.133"/>
	<path style="fill:#439FDE;" d="M503.466,337.066c0,28.279-22.921,51.2-51.2,51.2c-28.279,0-51.2-22.921-51.2-51.2
		s22.921-51.2,51.2-51.2C480.545,285.866,503.466,308.787,503.466,337.066"/>
	<path style="fill:#2485BB;" d="M435.199,354.133c-4.719,0-8.533-3.814-8.533-8.533c0-18.825,15.309-34.133,34.133-34.133
		c4.719,0,8.533,3.814,8.533,8.533c0,4.719-3.814,8.533-8.533,8.533c-9.412,0-17.067,7.654-17.067,17.067
		C443.733,350.318,439.918,354.133,435.199,354.133"/>
	<g>
		<path style="fill:#D7A645;" d="M135.408,122.441L310.461,13.299c-7.364-2.483-14.925-4.506-22.699-5.965L126.371,107.96
			L135.408,122.441z"/>
		<path style="fill:#D7A645;" d="M346.985,30.718l-146.799,94.37l9.233,14.353l152.602-98.099
			C357.217,37.52,352.19,34.004,346.985,30.718"/>
		<path style="fill:#D7A645;" d="M388.334,67.228L268.543,142.1l9.045,14.464l120.858-75.529
			C395.289,76.265,391.935,71.649,388.334,67.228"/>
		<path style="fill:#D7A645;" d="M413.12,108.223l-82.731,45.961l8.286,14.916l80.384-44.655
			C417.353,118.907,415.364,113.497,413.12,108.223"/>
		<path style="fill:#D7A645;" d="M172.688,323.809l252.757-129.186c0.742-6.468,1.22-13.022,1.22-19.695
			c0-0.034-0.009-0.06-0.009-0.094L156.108,313.109C161.433,316.966,166.928,320.584,172.688,323.809"/>
		<path style="fill:#D7A645;" d="M228.663,343.209l178.534-89.267c4.053-7.748,7.484-15.855,10.325-24.243L202.832,337.04
			C211.169,339.779,219.814,341.784,228.663,343.209"/>
		<path style="fill:#D7A645;" d="M104.942,254.229l114.125,39.697l5.598-16.119L95.658,232.938
			C98.312,240.268,101.35,247.402,104.942,254.229"/>
		<path style="fill:#D7A645;" d="M86.725,195.734l200.098,66.611l5.385-16.196l-206.754-68.83
			C85.539,183.549,85.991,189.684,86.725,195.734"/>
		<path style="fill:#D7A645;" d="M86.77,153.842l264.832,71.987l4.48-16.461L89.722,136.955
			C88.459,142.493,87.478,148.117,86.77,153.842"/>
		<path style="fill:#D7A645;" d="M426.653,174.689l-322.628-77.15c-2.62,5.137-4.975,10.428-7.074,15.855l327.731,78.37l1.434-6.007
			c0.23-3.601,0.546-7.168,0.546-10.82C426.662,174.851,426.653,174.774,426.653,174.689"/>
	</g>
</g>
</svg>