<?xml version="1.0" encoding="iso-8859-1"?>
<!-- Uploaded to: SVG Repo, www.svgrepo.com, Generator: SVG Repo Mixer Tools -->
<svg height="800px" width="800px" version="1.1" id="Layer_1" xmlns="http://www.w3.org/2000/svg" xmlns:xlink="http://www.w3.org/1999/xlink" 
	 viewBox="0 0 511.653 511.653" xml:space="preserve">
<g transform="translate(1)">
	<path style="fill:#FFA800;" d="M172.227,250.706c12.8,11.947,28.16,17.067,44.373,17.067h27.307c17.92,0,34.987,10.24,44.373,28.16
		c15.36,27.307-10.24,31.573-23.04,31.573c23.04,0.853,64.853,2.56,81.92-8.533l18.773-13.653V89.426
		c0-9.387-5.973-17.067-14.507-17.067h-69.973v60.587c0,6.827-5.973,10.24-10.24,5.973l-24.747-23.893L221.72,138.92
		c-4.267,4.267-10.24,0.853-10.24-5.973V72.36h-69.973c-8.533,0-14.507,7.68-14.507,17.067V249
		C142.36,242.173,159.427,239.613,172.227,250.706"/>
	<path style="fill:#FFFFFF;" d="M127,89.426c0-9.387,5.973-17.067,14.507-17.067h-23.04c-9.387,0-17.067,7.68-17.067,17.067V249
		c8.533-3.413,17.067-5.12,25.6-5.973V89.426z"/>
	<path style="fill:#FF8800;" d="M374.467,71.506H352.28c7.68,0,14.507,7.68,14.507,17.067v215.893l-18.773,13.653
		c-11.093,6.827-33.28,8.533-53.76,9.387c27.307,0,59.733-0.853,75.093-9.387l23.04-13.653V89.426
		C391.533,79.186,383.853,71.506,374.467,71.506"/>
	<path style="fill:#FDCC00;" d="M250.733,121l-4.267-5.973L216.6,138.92c-5.12,4.267-12.8,0.853-12.8-5.973V55.293h59.733v59.733
		C263.533,121.853,255.853,125.266,250.733,121"/>
	<path style="fill:#FFA800;" d="M263.533,55.293v59.733c0,4.267-3.413,7.68-7.68,7.68l20.48,16.213
		c5.12,4.267,12.8,0.853,12.8-5.973V55.293H263.533z"/>
	<polygon style="fill:#FFFFFF;" points="7.533,456.36 24.6,456.36 24.6,251.56 7.533,251.56 	"/>
	<g>
		<polygon style="fill:#FFE100;" points="24.6,456.36 50.2,456.36 50.2,251.56 24.6,251.56 		"/>
		<path style="fill:#FFE100;" d="M470.893,295.08c6.827-5.12,7.68-15.36,2.56-22.187c-11.093-14.507-11.093-6.827-47.787,12.8
			L357.4,319.826c-23.04,11.947-79.36,8.533-104.96,8.533c0,0,69.12,4.267,45.227-31.573c-11.947-17.92-41.813-28.16-63.147-28.16
			h-33.28c-19.627,0-38.4-5.973-53.76-17.067c-36.693-28.16-105.813,25.6-105.813,25.6v153.6h119.467
			c17.067,0,34.133-1.707,51.2-4.267l110.933-17.067c3.413,0-9.387-0.853-5.973-0.853l0,0c9.387-0.853,17.067-5.973,23.893-11.947
			L470.893,295.08z"/>
	</g>
	<path style="fill:#FFA800;" d="M499.053,272.04c-11.093-14.507-19.627-18.773-56.32,0.853l-23.04,14.507l5.973-3.413
		c37.547-19.627,37.547-27.307,47.787-12.8c5.12,6.827,3.413,17.067-2.56,22.187l-129.707,102.4
		c-6.827,5.973-14.507,11.093-23.893,11.947l0,0c-3.413,0.853,10.24,0.853,5.973,0.853L212.333,425.64
		c-17.067,2.56-34.133,4.267-51.2,4.267H50.2l0,0h119.467c17.067,0,34.133-1.707,51.2-4.267L331.8,408.573
		c3.413,0,7.68-0.853,11.093-0.853l0,0c9.387-0.853,17.067-5.973,23.893-11.947l129.707-101.547
		C503.32,289.106,504.173,279.72,499.053,272.04"/>
	<path d="M169.667,439.293h-128v-166.4l3.413-2.56c3.413-2.56,75.093-57.173,116.053-26.453c13.653,10.24,30.72,15.36,48.64,15.36
		h33.28c24.747,0,47.787,11.947,61.44,31.573c7.68,11.093,9.387,20.48,5.12,28.16c21.333,0,44.373-1.707,54.613-7.68l73.387-45.227
		c37.547-19.627,52.907-19.627,68.267,0.853c7.68,10.24,5.973,25.6-4.267,34.133l0,0l-128.853,102.4
		c-8.533,7.68-17.92,12.8-28.16,14.507c-3.413,0.853-7.68,1.707-11.947,1.707L221.72,436.733
		C204.653,437.586,186.733,439.293,169.667,439.293z M58.733,422.226h110.933c16.213,0,33.28-0.853,49.493-3.413l112.64-17.067
		c3.413,0,5.973,0,9.387-0.853c7.68-0.853,14.507-4.267,19.627-10.24l0.853-0.853l129.707-100.693
		c3.413-2.56,3.413-7.68,1.707-10.24c-6.827-10.24-10.24-14.507-46.08,3.413l-73.387,45.227
		c-19.627,10.24-57.173,11.093-97.28,10.24c-1.707,0-3.413,0-4.267,0c-5.12,0-8.533,0-11.093,0l0.853-17.067c2.56,0,5.973,0,9.387,0
		c11.093-0.853,21.333-2.56,23.893-6.827c0.853-1.707,0-6.827-3.413-11.947c-11.093-16.213-29.013-24.747-48.64-24.747h-33.28
		c-22.187,0-42.667-6.827-58.88-18.773c-23.893-18.773-71.68,8.533-92.16,23.04V422.226z M496.493,295.933L496.493,295.933
		L496.493,295.933z"/>
	<path d="M58.733,464.893H-1V243.026h59.733V464.893z M16.067,447.826h25.6V260.093h-25.6V447.826z"/>
	<path d="M144.067,362.493c-5.12,0-8.533-3.413-8.533-8.533c0-21.333,16.213-34.133,42.667-34.133h82.773
		c5.12,0,8.533,3.413,8.533,8.533c0,5.12-3.413,8.533-8.533,8.533H178.2c-25.6,0-25.6,12.8-25.6,17.067
		C152.6,359.08,149.187,362.493,144.067,362.493z"/>
	<path d="M211.48,149.16c-2.56,0-5.12-0.853-6.827-1.707c-5.973-2.56-9.387-8.533-9.387-14.507V55.293
		c0-5.12,3.413-8.533,8.533-8.533h85.333c5.12,0,8.533,3.413,8.533,8.533v77.653c0,5.973-3.413,11.947-9.387,14.507
		c-5.973,2.56-11.947,1.707-17.067-1.707l0,0l-24.747-19.627l-24.747,19.627C218.307,148.306,214.893,149.16,211.48,149.16z
		 M212.333,63.826v67.413l29.013-23.04c3.413-2.56,7.68-2.56,10.24,0l29.013,23.04V63.826H212.333z"/>
	<path d="M299.373,337.746c-8.533,0-16.213,0-23.893,0h-5.973c-4.267,0-8.533-4.267-8.533-8.533s3.413-8.533,8.533-8.533
		c14.507,0,23.04-3.413,24.747-6.827c0.853-1.707,0-6.827-4.267-11.947c-10.24-16.213-27.307-24.747-46.933-24.747h-33.28
		c-22.187,0-42.667-6.827-58.88-18.773c-10.24-7.68-25.6-7.68-46.08-0.853c-2.56,0.853-5.12,0.853-7.68-0.853
		c-2.56-2.56-4.267-5.12-4.267-7.68V89.426c0-14.507,11.947-25.6,25.6-25.6H203.8c5.12,0,8.533,3.413,8.533,8.533v58.88
		l29.013-23.04c3.413-2.56,7.68-2.56,10.24,0l29.013,23.04V72.36c0-5.12,3.413-8.533,8.533-8.533h85.333
		c14.507,0,25.6,11.947,25.6,25.6v34.133c0,5.12-3.413,8.533-8.533,8.533S383,128.68,383,123.56V89.426
		c0-5.12-4.267-8.533-8.533-8.533h-76.8v52.053c0,5.973-3.413,11.947-9.387,14.507c-5.973,2.56-11.947,1.707-17.067-1.707
		l-24.747-19.627l-24.747,19.627c-5.12,4.267-11.093,4.267-17.067,1.707s-9.387-8.533-9.387-14.507V80.893h-76.8
		c-5.12,0-8.533,4.267-8.533,8.533v147.627c21.333-5.12,38.4-3.413,51.2,6.827c13.653,10.24,30.72,15.36,48.64,15.36h33.28
		c24.747,0,47.787,11.947,61.44,31.573c7.68,11.093,9.387,20.48,5.12,28.16c21.333,0,44.373-1.707,54.613-7.68l17.92-11.093V191.826
		c0-5.12,3.413-8.533,8.533-8.533c5.12,0,8.533,3.413,8.533,8.533v114.347c0,2.56-1.707,5.973-4.267,7.68l-23.04,13.653
		C356.547,336.04,325.827,337.746,299.373,337.746z"/>
	<path d="M400.067,157.693c0-5.12-3.413-8.533-8.533-8.533S383,152.573,383,157.693c0,5.12,3.413,8.533,8.533,8.533
		S400.067,162.813,400.067,157.693"/>
</g>
</svg>